<?xml version="1.0" encoding="UTF-8"?>
<!DOCTYPE svg PUBLIC "-//W3C//DTD SVG 1.1//EN" "http://www.w3.org/Graphics/SVG/1.1/DTD/svg11.dtd">
<svg xmlns="http://www.w3.org/2000/svg" version="1.1" width="400px" height="400px" style="shape-rendering:geometricPrecision; text-rendering:geometricPrecision; image-rendering:optimizeQuality; fill-rule:evenodd; clip-rule:evenodd" xmlns:xlink="http://www.w3.org/1999/xlink">
<g><path style="opacity:0.969" fill="#fe0000" d="M 59.5,8.5 C 83.5,8.5 107.5,8.5 131.5,8.5C 131.859,10.7659 131.192,12.5993 129.5,14C 125.514,14.4988 121.514,14.6655 117.5,14.5C 117.333,61.8345 117.5,109.168 118,156.5C 134.59,117.062 150.59,77.3954 166,37.5C 169.534,22.3499 163.7,14.1832 148.5,13C 147.62,11.6439 147.286,10.1439 147.5,8.5C 166.167,8.5 184.833,8.5 203.5,8.5C 203.714,10.1439 203.38,11.6439 202.5,13C 193.696,12.4858 186.529,15.6525 181,22.5C 178.079,27.3413 175.412,32.3413 173,37.5C 163.5,60.5 154,83.5 144.5,106.5C 162.639,174.057 180.306,241.724 197.5,309.5C 201.5,309.5 205.5,309.5 209.5,309.5C 209.5,311.167 209.5,312.833 209.5,314.5C 186.258,314.827 163.092,314.494 140,313.5C 139.316,312.216 139.483,311.049 140.5,310C 145.202,309.828 149.868,309.328 154.5,308.5C 142.179,264.216 130.012,219.883 118,175.5C 117.5,220.165 117.333,264.832 117.5,309.5C 122.5,309.5 127.5,309.5 132.5,309.5C 132.5,311.167 132.5,312.833 132.5,314.5C 108.5,314.5 84.5,314.5 60.5,314.5C 60.2865,312.856 60.6198,311.356 61.5,310C 65.8206,309.501 70.1539,309.334 74.5,309.5C 74.5,211.167 74.5,112.833 74.5,14.5C 70.1539,14.6657 65.8206,14.499 61.5,14C 59.8078,12.5993 59.1412,10.7659 59.5,8.5 Z"/></g>
<g><path style="opacity:0.957" fill="#fe0000" d="M 267.5,12.5 C 275.5,12.5 283.5,12.5 291.5,12.5C 303.354,111.52 315.354,210.52 327.5,309.5C 330.85,309.335 334.183,309.502 337.5,310C 338.833,311.333 338.833,312.667 337.5,314C 315.836,314.5 294.169,314.667 272.5,314.5C 272.5,312.833 272.5,311.167 272.5,309.5C 276.167,309.5 279.833,309.5 283.5,309.5C 282.433,290.761 280.766,272.094 278.5,253.5C 266.518,252.501 254.518,252.168 242.5,252.5C 240.011,267.073 238.844,281.74 239,296.5C 241.382,304.044 246.548,308.044 254.5,308.5C 254.5,310.5 254.5,312.5 254.5,314.5C 241.167,314.5 227.833,314.5 214.5,314.5C 214.5,312.5 214.5,310.5 214.5,308.5C 219.638,308.51 223.805,306.51 227,302.5C 230.209,296.204 232.209,289.538 233,282.5C 244.501,192.49 256.001,102.49 267.5,12.5 Z M 262.5,94.5 C 268.014,144.972 273.014,195.639 277.5,246.5C 266.167,246.5 254.833,246.5 243.5,246.5C 249.833,195.833 256.167,145.166 262.5,94.5 Z"/></g>
<g><path style="opacity:0.884" fill="#fe0000" d="M 46.5,324.5 C 149.834,324.333 253.167,324.5 356.5,325C 357.833,326 357.833,327 356.5,328C 253.167,328.667 149.833,328.667 46.5,328C 45.3157,326.855 45.3157,325.688 46.5,324.5 Z"/></g>
<g><path style="opacity:0.896" fill="#fe0000" d="M 44.5,339.5 C 49.7881,338.19 53.1214,338.19 54.5,339.5C 54.3337,346.508 54.5004,353.508 55,360.5C 57.3708,354.262 59.8708,348.095 62.5,342C 61.6243,340.415 60.2909,339.415 58.5,339C 61.8333,338.333 65.1667,338.333 68.5,339C 63.7181,343.22 60.7181,348.554 59.5,355C 61.9215,364.519 64.4215,374.019 67,383.5C 67.3176,385.061 68.1509,386.228 69.5,387C 60.1178,387.817 52.7845,387.65 47.5,386.5C 47.5,370.833 47.5,355.167 47.5,339.5C 46.5,339.5 45.5,339.5 44.5,339.5 Z M 54.5,368.5 C 56.7687,374.231 58.4354,380.231 59.5,386.5C 57.8333,386.5 56.1667,386.5 54.5,386.5C 54.5,380.5 54.5,374.5 54.5,368.5 Z"/></g>
<g><path style="opacity:0.772" fill="#fe0000" d="M 72.5,338.5 C 74.5273,338.338 76.5273,338.505 78.5,339C 79.5171,340.049 79.6838,341.216 79,342.5C 76.9361,343.591 74.7695,343.758 72.5,343C 71.2721,341.51 71.2721,340.01 72.5,338.5 Z"/></g>
<g><path style="opacity:0.779" fill="#fe0000" d="M 87.5,338.5 C 88.4861,342.97 88.8195,347.637 88.5,352.5C 95.1667,352.833 95.1667,353.167 88.5,353.5C 88.1681,363.855 88.5014,374.188 89.5,384.5C 90.7989,383.91 91.6322,382.91 92,381.5C 93.4332,374.901 94.4332,368.234 95,361.5C 95.2186,356.68 97.552,353.68 102,352.5C 103.711,352.439 105.044,353.106 106,354.5C 106.689,353.643 107.522,352.977 108.5,352.5C 109.833,357.167 109.833,361.833 108.5,366.5C 107.359,363.938 106.526,361.272 106,358.5C 105.376,356.246 104.043,354.579 102,353.5C 101.333,364.167 101.333,374.833 102,385.5C 103.566,386.061 104.899,385.394 106,383.5C 106.942,379.532 107.775,375.532 108.5,371.5C 110.117,377.194 109.117,382.36 105.5,387C 98.9784,388.819 95.4784,386.319 95,379.5C 94.2209,385.958 90.7209,388.458 84.5,387C 83.1068,385.829 82.2735,384.329 82,382.5C 82.1288,372.411 81.2955,362.578 79.5,353C 84.123,349.255 86.7897,344.421 87.5,338.5 Z"/></g>
<g><path style="opacity:0.831" fill="#fe0000" d="M 109.5,339.5 C 112.287,338.523 115.287,338.19 118.5,338.5C 118.334,343.511 118.501,348.511 119,353.5C 122.394,351.725 125.06,352.392 127,355.5C 127.179,366.077 127.679,376.577 128.5,387C 122.167,387.667 115.833,387.667 109.5,387C 110.817,379.234 111.483,371.234 111.5,363C 111.498,354.804 110.831,346.97 109.5,339.5 Z M 119.5,354.5 C 120.823,365.007 120.823,375.674 119.5,386.5C 118.192,375.772 118.192,365.106 119.5,354.5 Z"/></g>
<g><path style="opacity:0.814" fill="#fe0000" d="M 172.5,338.5 C 174.167,338.5 175.833,338.5 177.5,338.5C 178.873,353.192 180.54,367.859 182.5,382.5C 182.649,384.32 183.316,385.82 184.5,387C 180.833,387.667 177.167,387.667 173.5,387C 174.516,386.481 175.182,385.647 175.5,384.5C 174.777,382.218 174.443,379.884 174.5,377.5C 172.833,377.5 171.167,377.5 169.5,377.5C 167.566,381.261 168.233,384.427 171.5,387C 169.167,387.667 166.833,387.667 164.5,387C 165.893,385.829 166.727,384.329 167,382.5C 168.835,367.823 170.668,353.157 172.5,338.5 Z M 171.5,356.5 C 173.019,362.957 174.019,369.623 174.5,376.5C 172.833,376.5 171.167,376.5 169.5,376.5C 170.495,369.87 171.162,363.203 171.5,356.5 Z"/></g>
<g><path style="opacity:0.841" fill="#fe0000" d="M 303.5,386.5 C 300.054,388.172 296.887,387.839 294,385.5C 288.648,389.058 285.314,387.725 284,381.5C 282.085,387.652 278.419,388.986 273,385.5C 272.228,374.484 271.061,363.65 269.5,353C 274,349.171 276.833,344.338 278,338.5C 278.499,343.155 278.666,347.821 278.5,352.5C 285.167,352.833 285.167,353.167 278.5,353.5C 278.168,363.855 278.501,374.188 279.5,384.5C 280.799,383.91 281.632,382.91 282,381.5C 281.818,373.117 285.651,367.784 293.5,365.5C 294.842,361.752 294.675,358.085 293,354.5C 291.129,353.332 289.629,353.832 288.5,356C 292.19,356.69 293.357,358.857 292,362.5C 290,363.833 288,363.833 286,362.5C 284.199,355.632 286.865,352.299 294,352.5C 296.352,352.305 298.352,352.972 300,354.5C 300.168,364.517 300.668,374.517 301.5,384.5C 304.506,382.996 305.172,383.663 303.5,386.5 Z M 292.5,367.5 C 295.106,373.301 294.939,379.301 292,385.5C 291.212,379.418 291.379,373.418 292.5,367.5 Z"/></g>
<g><path style="opacity:0.973" fill="#fe0000" d="M 70.5,353.5 C 72.9479,352.527 75.6146,352.194 78.5,352.5C 77.8679,364.254 78.5346,375.754 80.5,387C 77.1667,387.667 73.8333,387.667 70.5,387C 71.8079,381.578 72.4746,375.911 72.5,370C 72.4952,364.124 71.8286,358.624 70.5,353.5 Z"/></g>
<g><path style="opacity:0.839" fill="#fe0000" d="M 134.5,352.5 C 137.97,351.875 140.804,352.875 143,355.5C 144.325,360.401 144.825,365.401 144.5,370.5C 141.5,370.5 138.5,370.5 135.5,370.5C 135.334,375.179 135.501,379.845 136,384.5C 136.308,385.308 136.808,385.975 137.5,386.5C 138.814,385.687 139.981,384.687 141,383.5C 141.879,380.182 142.713,376.848 143.5,373.5C 145.297,378.629 144.297,383.129 140.5,387C 135.572,388.643 132.072,387.143 130,382.5C 128.06,374.495 128.06,366.495 130,358.5C 130.804,355.854 132.304,353.854 134.5,352.5 Z M 136.5,353.5 C 137.117,353.611 137.617,353.944 138,354.5C 138.499,359.489 138.666,364.489 138.5,369.5C 137.5,369.5 136.5,369.5 135.5,369.5C 135.218,364.073 135.551,358.74 136.5,353.5 Z"/></g>
<g><path style="opacity:0.867" fill="#fe0000" d="M 144.5,353.5 C 149.972,352.972 155.472,352.972 161,353.5C 162.134,364.646 162.967,375.813 163.5,387C 160.5,387.667 157.5,387.667 154.5,387C 155.653,376.243 155.82,365.41 155,354.5C 153.883,355.949 153.216,357.616 153,359.5C 152.183,368.745 152.35,377.911 153.5,387C 150.5,387.667 147.5,387.667 144.5,387C 145.808,381.578 146.475,375.911 146.5,370C 146.495,364.124 145.829,358.624 144.5,353.5 Z"/></g>
<g><path style="opacity:0.742" fill="#fe0000" d="M 188.5,352.5 C 191.044,352.104 193.211,352.771 195,354.5C 195.689,353.643 196.522,352.977 197.5,352.5C 198.833,357.167 198.833,361.833 197.5,366.5C 196.359,363.938 195.526,361.272 195,358.5C 194.376,356.246 193.043,354.579 191,353.5C 190.333,364.167 190.333,374.833 191,385.5C 192.566,386.061 193.899,385.394 195,383.5C 195.942,379.532 196.775,375.532 197.5,371.5C 198.813,376.336 198.313,381.002 196,385.5C 189.093,389.546 185.093,387.546 184,379.5C 183.333,373.5 183.333,367.5 184,361.5C 184.472,357.89 185.972,354.89 188.5,352.5 Z"/></g>
<g><path style="opacity:0.742" fill="#fe0000" d="M 204.5,352.5 C 207.044,352.104 209.211,352.771 211,354.5C 211.689,353.643 212.522,352.977 213.5,352.5C 214.833,357.167 214.833,361.833 213.5,366.5C 212.359,363.938 211.526,361.272 211,358.5C 210.376,356.246 209.043,354.579 207,353.5C 206.333,364.167 206.333,374.833 207,385.5C 208.566,386.061 209.899,385.394 211,383.5C 211.942,379.532 212.775,375.532 213.5,371.5C 214.813,376.336 214.313,381.002 212,385.5C 205.093,389.546 201.093,387.546 200,379.5C 199.333,373.5 199.333,367.5 200,361.5C 200.472,357.89 201.972,354.89 204.5,352.5 Z"/></g>
<g><path style="opacity:0.804" fill="#fe0000" d="M 220.5,352.5 C 226.752,351.588 230.252,354.254 231,360.5C 231.667,367.167 231.667,373.833 231,380.5C 229.699,387.243 225.866,389.243 219.5,386.5C 217.52,384.205 216.353,381.539 216,378.5C 215.152,371.101 215.485,363.767 217,356.5C 218.032,354.973 219.199,353.64 220.5,352.5 Z M 222.5,354.5 C 223.828,359.456 224.495,364.789 224.5,370.5C 224.333,375.833 224.167,381.167 224,386.5C 222.525,375.997 222.025,365.33 222.5,354.5 Z"/></g>
<g><path style="opacity:0.892" fill="#fe0000" d="M 231.5,353.5 C 233.948,352.527 236.615,352.194 239.5,352.5C 239.333,363.505 239.5,374.505 240,385.5C 240.915,384.672 241.581,383.672 242,382.5C 242.167,377.667 242.333,372.833 242.5,368C 242.47,362.75 241.804,357.75 240.5,353C 243.482,352.502 246.482,352.335 249.5,352.5C 249.179,364.081 249.512,375.581 250.5,387C 249.167,387.167 247.833,387.333 246.5,387.5C 242.389,387.381 238.222,387.048 234,386.5C 234.148,375.121 233.315,364.121 231.5,353.5 Z"/></g>
<g><path style="opacity:0.867" fill="#fe0000" d="M 251.5,353.5 C 256.972,352.972 262.472,352.972 268,353.5C 269.134,364.646 269.967,375.813 270.5,387C 267.5,387.667 264.5,387.667 261.5,387C 262.653,376.243 262.82,365.41 262,354.5C 260.883,355.949 260.216,357.616 260,359.5C 259.183,368.745 259.35,377.911 260.5,387C 257.5,387.667 254.5,387.667 251.5,387C 252.808,381.578 253.475,375.911 253.5,370C 253.495,364.124 252.829,358.624 251.5,353.5 Z"/></g>
<g><path style="opacity:0.867" fill="#fe0000" d="M 303.5,386.5 C 304.829,381.376 305.495,375.876 305.5,370C 305.475,364.089 304.808,358.422 303.5,353C 308.91,353.076 314.243,353.076 319.5,353C 320.126,353.75 320.626,354.584 321,355.5C 321.179,366.077 321.679,376.577 322.5,387C 319.5,387.667 316.5,387.667 313.5,387C 314.653,376.243 314.82,365.41 314,354.5C 312.883,355.949 312.216,357.616 312,359.5C 311.183,368.745 311.35,377.911 312.5,387C 309.304,387.805 306.304,387.638 303.5,386.5 Z"/></g>
<g><path style="opacity:0.742" fill="#fe0000" d="M 327.5,352.5 C 330.044,352.104 332.211,352.771 334,354.5C 334.689,353.643 335.522,352.977 336.5,352.5C 337.833,357.167 337.833,361.833 336.5,366.5C 335.359,363.938 334.526,361.272 334,358.5C 333.376,356.246 332.043,354.579 330,353.5C 329.333,364.167 329.333,374.833 330,385.5C 331.566,386.061 332.899,385.394 334,383.5C 334.942,379.532 335.775,375.532 336.5,371.5C 337.813,376.336 337.313,381.002 335,385.5C 328.093,389.546 324.093,387.546 323,379.5C 322.333,373.5 322.333,367.5 323,361.5C 323.472,357.89 324.972,354.89 327.5,352.5 Z"/></g>
<g><path style="opacity:0.839" fill="#fe0000" d="M 344.5,352.5 C 347.97,351.875 350.804,352.875 353,355.5C 354.325,360.401 354.825,365.401 354.5,370.5C 351.5,370.5 348.5,370.5 345.5,370.5C 345.334,375.179 345.501,379.845 346,384.5C 346.308,385.308 346.808,385.975 347.5,386.5C 348.814,385.687 349.981,384.687 351,383.5C 351.879,380.182 352.713,376.848 353.5,373.5C 355.297,378.629 354.297,383.129 350.5,387C 345.572,388.643 342.072,387.143 340,382.5C 338.06,374.495 338.06,366.495 340,358.5C 340.804,355.854 342.304,353.854 344.5,352.5 Z M 346.5,353.5 C 347.117,353.611 347.617,353.944 348,354.5C 348.499,359.489 348.666,364.489 348.5,369.5C 347.5,369.5 346.5,369.5 345.5,369.5C 345.218,364.073 345.551,358.74 346.5,353.5 Z"/></g>
</svg>
